<svg xmlns="http://www.w3.org/2000/svg" viewBox="0 0 414.51 83.42"><defs><style>.cls-1{fill:#231f20;}</style></defs><title>text</title><g id="Layer_2" data-name="Layer 2"><g id="Layer_1-2" data-name="Layer 1"><path class="cls-1" d="M43.32,31l-.6-.17-.34-.3-.31-.39L42,29.5l0-.6L41.86,28v-.43l.13-.95.08-1.07V25l0-.77,0-.82,0-.73V21.54l0-.64,0-.78,0-.64,0-.3L42,18.79l-.09-.34.17-.13.22-.09,0-.21h-.09l-.21,0-.09-.21,0-.13.09-.18-.09-.3v-.43l0-.21.09-.39,0-.56-.09-.3L42,15v-.81l.08-.6.09-.31v-.47l0-.77,0-.73,0-.78v-1L42,7.87V7.05l-.09-.51V4.43l0-.9V3l.08-.95.26-.64.17-.17.3-.26L43,1l.47-.13h.65l.39-.09.47,0,2.23.09.26,0,.56,0,.78,0h.77l.64,0h1.42L52,.77h.65l.82,0h.38L54.2.73l.43,0,.47,0,.43.09.39-.13.3,0h.17l.22-.08L57,.73l.94,0,.78,0,.47,0,.6.09.69.17.6.13.9.34.73.35.78.39.82.68.6.65.3.39.34.56.3.6.22.56.17.47,0,.34.22.56.17.78.09.6.13.6v1.42l0,1-.21.9-.09.81-.34.65-.09.34-.21.43-.18.39-.43.47-.47.61-.21.3-.39.38-.43.56-.3.35-.35.17-.25.17-.35.17-.43.17-.77.18-.3.17-.48.21-.38.09-.48,0-.55.09h-1.9l-.43,0H56l-.73,0-.73.09-1-.05-1.24.13-2.8,0H48.4l-1,.13-.3.73-.26.91v2.49L46.8,24l.05.56-.05.95.05,1.2v1.5l-.13.52v.73l0,.39-.22.43-.52.47-.6.13L45,31l-.69,0ZM53,14.23l1.11,0,.31,0,.25,0,.35,0,.64-.05,1,.05,2.24-.09.9-.26.65-.34.73-.77.6-1.08.17-.73,0-.56V9.46l-.17-1-.21-.94-.35-.65-.3-.3-.51-.34-1.25-.56-1.25-.13-.64,0-.82,0-.56,0-.6,0-.47,0H52.44l-.52,0-.26,0h-.25l-.56,0-.73,0L49,5.63l-1-.08-.26,0-.3.13-.21.48-.17.64L47,7.61v.86l0,.56-.08.6v3.18l.08.78.13.26.22.17.56.13.68.08.74,0h2.15l.68,0Z"/><path class="cls-1" d="M88.21,31.52h-.73l-.64,0L86,31.35H84.9l-.77-.18-.43-.12-.56-.13-.77-.3-1-.39-.86-.47L80,29.54l-.47-.3-.56-.3-.39-.3-.43-.26-.6-.56-.73-.64-.47-.48-1.55-1.85-.6-1.16-.52-.94-.56-1-.25-1-.22-.56-.21-1-.18-.86,0-.51-.13-.74,0-.6,0-.73V14.53l.13-.81.09-.78.34-1.07.13-.69.34-1,.43-1.12.39-.6.43-1,.82-1.29.73-1,.43-.39.3-.39L77.12,4l.43-.43.34-.17.48-.48,1.16-.64,1-.52,1.2-.56L82.67,1l.56-.26L84.39.3,85.46.13,86.15,0l1,0,1.51,0,1,.09h.47L91,.21l.86.22.55.13.39.17.65.22.6.21.6.3.69.39.9.47,1.21.78.9.73.9.86L100.3,6l.68.81.31.43.25.52.3.43.39.77.43,1,.26.86.21.69.09.39.17.56.22,1.07.08.69v.6l0,.69-.09.73-.09,1.12-.08.69,0,.68-.13.86-.13.52-.17.73-.39,1-.35.95-.38.82-.3.51-.22.43L101,25l-.3.39-.26.39-.17.3-.26.3-.47.47-.56.43-.39.39-.3.26-.39.3-.34.3-.43.26-.3.25-.52.35-.86.47-1,.56-.73.3-.47.17-.9.3-1.08.31-.9.12H89.2Zm1.47-5,.55,0,.26,0,.22-.12.17-.09.56-.09.56-.25.51-.18.82-.43.86-.55,1.12-.82.64-.69.22-.26.34-.51.65-.82L98,20.34l.26-.95.17-.81.13-.95.08-1.16.09-.6-.09-1.12-.3-1.55-.3-1-.43-.9-.21-.73-.26-.48-.35-.68-.51-.65L96,8.38l-.48-.47L94.06,6.75l-1.37-.82-.82-.34L91,5.33l-.35-.08-.56-.18-.73-.17H87L86.32,5l-.77.09-1,.3L83.14,6,80.73,7.4l-.43.47L80,8.3l-.26.21-.52.73L78.8,10l-.22.3-.17.47-.3.56-.26.69-.21.69-.09.6-.22.94-.08,1.08,0,.51,0,.61.09.68v.65l0,.21.13.48.17.77.13.65.52.94,1,1.55.82,1,.3.35.69.6.86.56.3.17.17.08.77.43.91.44.73.21,1.2.21,1.21.18,1,0Z"/><path class="cls-1" d="M112.25,30.79l-.56-.3-.3-.61-.21-.77-.05-.9.05-.95-.05-.86.09-.64,0-1.12V20.73l-.09-.48,0-.94V16.64l0-1.2v-.82l.09-.95,0-.94.08-1.12-.08-1.12.08-.9v-2l-.08-.6V5.76l0-1.07V2.32l.17-.69.13-.3.21-.3.3-.17.52-.13.56,0,.56.08h.81l.69,0,.47.17.26.26.22.39.08.3,0,.69,0,.86V4l.09,1v.69l-.09.86,0,.73V10l0,.94.09.82,0,.77,0,1.29,0,.95,0,.3,0,.47.05.82-.05.82v.38l0,.39,0,.3-.08.86v.78l0,1.46-.13.94v1l0,.73.13,1v.34l0,.39.26.34.21.09h1.9l.94,0,.39,0,.43,0,.69,0,.86.05h.9l.69-.13.82-.05h.77l.64.05h.86l.52.08h.77l1-.13h1l.64.05h.61l.55.13.48.3.47.56.09.3v1.93l-.09.43-.13.3-.34.3-.73.39-.61.09-.73-.05h-2.23l-.73.13-.56,0h-2.45l-.65,0-2.54.08H112.9Z"/><path class="cls-1" d="M139.86,31.43l-.56-.13-.78-.38-.6-.48-.43-.51-.17-.52v-.77l.39-.78.25-.64.22-.47.26-.52.38-.9.26-.69L139.9,23l.43-.94.39-1,.68-1.33.43-1,.31-.6.3-.65.34-.73.6-1.55.52-.9.34-1,.6-1.29.69-1.59.39-.86L146.56,8,147,7l.21-.65.39-.73.3-.6.09-.34.17-.43.21-.61.3-.42.26-.52.26-.47.17-.35.3-.51.52-.43,1.07-.22h1.17l.55.13.48.43.3.56.26.51.43,1,.43.95.81,1.59.26.69.3.56.26.77.34.78.22.6.3.6.47,1.08.48.94.3.78.3.51.17.47.3.65.39.69.26.68.25.74.26.43.22.55.43.78.34.86.56,1.33.77,1.46.43,1,.31.64.17.39.17.56.51,1,.39.82.22.34.38.82.3.9.22.73-.17.95-.48.56-.86.43-1.5.38-1-.21-.39-.35-.43-.43-.12-.56-.39-.81-.48-1-.25-.47-.39-.86-.47-1-.18-.39-.3-.52-.38-.68-.3-.56-.43-.3-.86-.09-1.08,0h-5l-1.42,0-1.12.09-.6,0-.73.09-.69,0-.56.3-.25.39-.86,1.72-.44.77-.12.48-.22.43-.26.6-.34.73-.22.64-.43.69-.51.78-.48.38-.68.18Zm15.26-13.07,0,0,.13-.05.18-.38-.13-.78-.26-.64-1-1.68L153.7,14l-.56-1.38-.34-.82-.3-.77L152,9.89l-.51-.43-.34.69-.35,1.07-.73,1.64L149.53,14l-.39,1.07-.34.78-.43.86,0,.34-.09.39v.43l.3.3.73,0h.78l1.2.09,2.88.08Z"/><path class="cls-1" d="M194.59,31.3l-.43-.25-.34-.31-.47-.51-.52-.73-.34-.43-.35-.48-.34-.51-.39-.56-.26-.43-.34-.43-.47-.69-.69-.77-.47-.6-.39-.56-.56-.69-.64-.78-.52-.73-.69-.81-.43-.6-.26-.35-.3-.21-.43-.31-.43-.21-.47-.09-.56-.08-.39,0-2.66-.08-1,.08-.86.3-.22.69-.09,1.16-.08,1,0,.52,0,1.11v.86l0,1.21,0,.34v.82l0,.73v.9l-.09.6-.08.69-.22.43-.21.26-.26.13-.43.13h-.52l-.77.08-1-.08L174,31l-.43-.17-.39-.69-.21-.6v-1l0-1-.05-.43.13-1.68v-1l0-.86-.09-.69V19.87l.05-.82,0-.52,0-.34v-2l0-.82V13.72l0-.91v-.6l.08-.43-.08-.51v-.86l-.05-.31.05-.25,0-.43V8.64l0-.17.08-.64V5.76L173,5.33l.08-.43-.13-.82V3.31l.05-.86.17-.73.26-.39.25-.21.48-.26,1.24-.17,1.9.08,1.5,0,1,0h.69l.47,0,.73,0,1,0,2.19,0h.56l.82,0h2l1,0L191.5.9,192,1l.78.26,1,.43,1.07.64.6.61.35.38.64.69.39.73.22.69.3.73.21.6.17.35.09.38.09.35,0,.51,0,.56,0,1,0,1.33,0,.64-.09.35-.13.47-.17.47-.3.86-.43,1-.26.39-.26.43-.47.52-.43.38-.43.48-.73.47-.52.26-.73.51-.9.39-.26.26,0,.21,0,.17.26.43.47.78.6.73.43.52.22.38.34.39,1.29,1.85.47.6.52.69.43.51.34.56.48.61.3.77-.09.3-.17.56-.52.86-.6.39L196,31l-.95.39Zm-5.8-17,.39,0,.47,0,.34,0,.43,0,.39-.17.3-.13.39-.13.26-.21.3-.3.26-.35.34-.9.17-.9.09-.39,0-.65.09-.51L193,8.94l-.21-.77-.22-.69L192,6.67l-.73-.48-.6-.17-.82-.26-.81,0-.65,0-.38,0h-.39l-.47,0-.52.09h-2.88l-.6,0h-.69l-.78,0-.64-.13h-1.33l-1,.13-.26.08-.13.3-.05.56,0,1.12V9.12l0,1,0,1.38,0,1.29.13.78.64.38.56.13.56,0,.77-.08.48.08.94.05h.91l.25,0,1,0h1.16l1.81.17Z"/><path class="cls-1" d="M229.6,31.05,228.52,31l-.82.05h-.56l-.68-.09-1.81,0-.47.05-1-.05-1.5.09-.95-.13-.43-.09-.39-.25-.47-.74-.13-1.24,0-1.38.08-1.46v-1l-.08-1.16-.09-1.46V19.26l.05-1.41-.05-1,0-1.29V14.36l0-.81,0-1.21v-.73l0-1.38,0-1V8.64l0-.81V6.71l.09-.9V4l0-1,.08-.64.26-.82.73-.64,1-.22.9,0,.6,0,1.72,0h1.08l1,0,.51,0h1.64l.51.09.73,0,1.34,0,.69-.09h2.83l2,.22,1.12.3.56.17,1.93,1,.52.43.47.47.43.47.48.82.6,1.33.43,1.34.13.69V9.63l-.05.65-.34,1.29-.43,1.24-.47.74-.65.85-.34.65.17.26.73.47.6.65.6.94.48,1.12.47,1.29.22.9.17.82,0,.77,0,1.17-.35,1.29-.17.73-.34.77-.43.95-.52.51-.43.69-.86.73-1.16.65-.9.38-.65.17-1.11.35-1.12.17-.56.13-.65,0-.43.05-.73.08-.77,0-1.12,0h-1.12Zm1.24-18.15,1.85,0h.69l.86-.08,1.46-.22.78-.3.81-.64.43-.56.39-.65.13-.9V8.51L238,7.83l-.21-.56-.39-.52-.94-.56-1-.38h-.73l-.51,0-2.2,0-1.67,0h-1.08l-.82-.08-1.2,0-1.38.09-.77.13-.34.13-.18.34V7l0,.64-.17.86,0,1v1.07l.13.78V12l.13.38.17.26.39.13.34,0,.86,0h1l.9,0,1.34,0Zm1.64,13.24,1,0,1.12-.13h.73l.81-.08.73-.05.69-.21.43-.26.56-.52.43-.68.17-.35.22-.47.08-.73.09-.86-.09-.69-.21-.69-.39-.82-.43-.51-.34-.3-.34-.22-.22-.13-.47-.17L235.79,18,234.2,18l-1.16,0-.52,0h-1.94l-.56,0-.64,0h-.86l-3.18.05-.6.17-.18.43.05.73.08.64v.82l-.08,1.29-.09,1.64v.94l.17,1.16L225,26l.21.08.91,0h1.59l1.33.05,1-.05,1.12.09Z"/><path class="cls-1" d="M269.24,31l-.3,0-.39,0-1-.08-.86,0-.55,0-1.21,0H264l-.82,0h-.69l-.6.08-.69,0L261,31l-.95-.08h-1.29l-1.42-.05-1.55.05h-1.37l-.69-.05-.69-.38-.51-.86-.09-1V25.54l0-1.33,0-1V21.89l0-.82,0-.9,0-.43v-.6l0-.65v-1l0-.13,0-.39,0-.51V16l0-1,0-1.81,0-1.2v-.73l0-1.25V7.22l-.08-.73,0-.56V5.42l0-.82V4.13l0-.82,0-1.16.17-.56.3-.47.47-.3.35-.17.47-.09h1.25l1.8.09h2.84L261.29.6l.9,0,1.33,0h2.8l.94.13h.95l.69-.09,1.2,0,.69.05,1.72-.09.47,0,.65,0,.68.09L275,.9l.34.52.26.86.09.9,0,.56-.25.78-.48.6-.47.17-1,.09-1.55,0-.9,0-.39,0-1.37.08h-2l-1.64,0-1,0h-.43l-.86.08-2.28,0h-.77l-.94,0h-.82l-.78.22-.13.68,0,.73-.08.3v.74l-.05,1,.09,1.08,0,1.12.21,1,.52.3h.34l.95.13,1.11-.09h.74l.9.09.94-.09,3.27,0h2.37l.64,0,.73.22.52.51.17.48.09.42,0,.35.09,1-.13.9-.3.52-.86.43h-2.28l-2.5.13-1.37,0h-.48l-1.76,0-.51,0-.78,0-1,0-.52.09-.55.17-.31.26,0,.6,0,.65-.09.73v.94l0,.65v.81l0,.69v1.16l.39,1.12,1.2.52h3l1.21,0,1.2,0L267,26l.9-.09h2.58L271,26h.82l1.33,0,1.08.08h.55l.35.09.39.26.25.38.13.78,0,.9v.52l-.09.47-.17.52-.26.34-.3.17-.43.13-2.15.22-1.12.13h-1.2Z"/><path class="cls-1" d="M283,31.43l-.56-.13-.77-.38-.6-.48-.43-.51-.18-.52v-.77l.39-.78.26-.64.21-.47.26-.52.39-.9.26-.69L283,23l.43-.94.39-1,.69-1.33.43-1,.3-.6.3-.65.35-.73.6-1.55.51-.9.35-1,.6-1.29.69-1.59.38-.86L289.71,8l.47-1,.22-.65.38-.73.3-.6.09-.34.17-.43.22-.61.3-.42.26-.52.25-.47.18-.35.3-.51.51-.43,1.08-.22h1.16l.56.13.47.43.3.56.26.51.43,1,.43.95.82,1.59.26.69.3.56.26.77.34.78.21.6.3.6L301,11l.47.94.3.78.3.51.17.47.31.65L303,15l.26.68.26.74.26.43.21.55.43.78.35.86.55,1.33.78,1.46.43,1,.3.64.17.39.17.56.52,1,.39.82.21.34.39.82.3.9.21.73-.17.95-.47.56-.86.43-1.51.38-1-.21-.39-.35-.43-.43-.13-.56-.39-.81-.47-1-.26-.47-.39-.86-.47-1-.17-.39-.3-.52-.39-.68-.3-.56-.43-.3-.86-.09-1.07,0h-5l-1.41,0-1.12.09-.6,0-.74.09-.68,0-.56.3-.26.39-.86,1.72-.43.77-.13.48-.21.43-.26.6-.35.73-.21.64-.43.69-.52.78-.47.38-.69.18Zm15.27-13.07,0,0,.13-.05.17-.38-.13-.78-.26-.64-.94-1.68-.43-.81-.56-1.38-.35-.82-.3-.77-.47-1.12-.52-.43-.34.69L294,11.22l-.74,1.64L292.68,14l-.39,1.07-.35.78-.42.86,0,.34-.08.39v.43l.3.3.73,0h.77l1.21.09,2.88.08Z"/><path class="cls-1" d="M337.74,31.3l-.43-.25-.34-.31-.48-.51L336,29.5l-.35-.43-.34-.48-.35-.51-.38-.56-.26-.43-.35-.43-.47-.69-.69-.77-.47-.6-.39-.56-.55-.69-.65-.78-.52-.73-.68-.81-.43-.6-.26-.35-.3-.21-.43-.31-.43-.21-.48-.09-.55-.08-.39,0-2.67-.08-1,.08-.86.3-.22.69-.08,1.16-.09,1,0,.52,0,1.11v.86l0,1.21,0,.34v.82l-.05.73v.9l-.08.6-.09.69-.21.43-.22.26-.26.13-.43.13h-.51l-.78.08-.94-.08-.47-.09-.43-.17-.39-.69-.22-.6v-1l0-1,0-.43.13-1.68v-1l-.05-.86-.08-.69V19.87l0-.82,0-.52,0-.34v-2l0-.82V13.72l0-.91v-.6l.09-.43-.09-.51v-.86l0-.31,0-.25,0-.43V8.64l0-.17.09-.64V5.76l-.09-.43.09-.43-.13-.82V3.31l0-.86.17-.73.26-.39.26-.21.47-.26,1.25-.17,1.89.08,1.51,0,1,0h.69l.47,0,.74,0,1,0,2.19,0h.56l.81,0h2l1,0,2.32.21.52.13.77.26,1,.43,1.08.64.6.61.34.38.65.69.39.73.21.69.3.73.22.6.17.35.08.38.09.35,0,.51,0,.56,0,1,.05,1.33-.05.64-.08.35-.13.47-.17.47-.31.86-.42,1-.26.39-.26.43-.47.52-.43.38-.43.48-.73.47-.52.26-.73.51-.91.39-.25.26,0,.21,0,.17.26.43.47.78.61.73.43.52.21.38.35.39,1.29,1.85.47.6.51.69.43.51.35.56.47.61.3.77-.08.3-.18.56-.51.86-.6.39-.74.51-.94.39Zm-5.81-17,.39,0,.47,0,.35,0,.43,0,.38-.17.31-.13.38-.13.26-.21.3-.3.26-.35.34-.9.18-.9.08-.39,0-.65.09-.51-.09-.65-.21-.77-.21-.69-.52-.81-.73-.48-.6-.17L333,5.76l-.82,0-.64,0-.39,0h-.39l-.47,0-.52.09H326.9l-.6,0h-.69l-.77,0-.65-.13h-1.33l-1,.13-.26.08-.13.3,0,.56,0,1.12V9.12l-.05,1,.05,1.38-.05,1.29.13.78.65.38.56.13.56,0L324,14l.47.08.95.05h.9l.26,0,.95,0h1.16l1.8.17Z"/><path class="cls-1" d="M359.84,31.52l-.56-.09-.73-.13-1.16-.17-1.29-.43-.86-.3-1.63-.69-1.17-.64-.51-.39-.73-.52L350,27.09l-.94-.82-.52-.81-.38-.73v-.87l.38-.73.47-.6.74-.38.43-.13.43-.18h.55l.56.13.43.26,1,.95.17.3.17.17,1.25,1,.51.39.48.21.86.47.94.35.69.34.6.17.43.09h.35l.34,0,.39.08.25,0,.65,0,1,.05.65-.18h.64l.52-.08.56,0,.47-.12.34-.18L366,26l.73-.43.95-.77.6-.73.13-.35.26-.64.08-.82-.13-1.07L367.92,20l-.86-.51-.47-.22-.64-.21-.61-.17-.64-.09-.65-.17-.6-.09-.56-.13-.6,0-.9-.17-.91-.09L360,18l-.9-.08-1.72-.3-.6-.13-.52-.17-.86-.22-.86-.3-.6-.26-.69-.26-.94-.47-.69-.43-.17-.08-.48-.39-.56-.52-.3-.26-.26-.34-.34-.52-.21-.38-.43-.69-.43-1.68V9.24l.08-.73.13-1,.17-.64.17-.43.22-.43.17-.39.3-.47.48-.64,1.33-1.34.43-.21.6-.43.73-.35.56-.43.47-.26.39-.17.39,0L355.5,1,357.05.6l.81-.13,1-.13.47-.08.56-.05.95-.08.86,0h.39l.3,0,1.5.13.26.09h.34l.43.09.39.08.52.09,1.12.43.43.26.38.17.56.34,1.08.47.6.56.94.73.82.87.73,1,.39.73-.09,1.29-.08.26-.18.3-.34.3-.77.47-.82.3-.69,0-.69-.3-.43-.3-.47-.48-.73-.77-.6-.52-.39-.3-.73-.38-.47-.39-1-.43-.69-.17L362.55,5l-.78,0-1.16,0-1,.08-.86,0-1.29.26-1.24.55-.52.3-.69.48-.86.77-.26.65-.17.51,0,.78.17.77.26.69.21.3.35.26.6.47.9.35,1.34.38.81.17.52.13.47.05.56.08.39.09.47.21h.3l.43.05h.86l.52.13.73.12.86.22.43.13.43,0,.17.13,1.12.13,2,.52.94.43.91.38.73.56.25.26.61.43.64.73.26.52.26.47.17.3.09.34.25.69.09.6,0,.18.09.08,0,.6V23l-.17,1-.17.69-.22.6-.21.43L373,26l-.3.51-.39.56-.34.39-.3.38-.22.22-.3.39-.38.38-.52.35-.73.47-.43.26-.3.17-.43.21-.43.18-.3.13-.61.17-.86.3-1.11.26-1,.08-.64.09-.86,0h-1.68Z"/><path class="cls-1" d="M2.54,83,2,82.9l-.78-.38L.6,82l-.43-.51L0,81v-.77l.39-.78.26-.64.21-.47.26-.52.38-.9.26-.69.82-1.64L3,73.66l.39-1,.68-1.33.44-1,.3-.6.3-.65.34-.73.6-1.55.52-.9.34-1,.6-1.29.69-1.59.39-.86.65-1.63.47-1L9.93,58l.39-.73.3-.6.09-.34.17-.43.21-.6.31-.43.25-.52.26-.47.17-.35.3-.51.52-.43L14,52.33h1.16l.55.13.48.43.3.56.26.52.43,1,.43.95.81,1.59.26.69.3.56.26.77.34.78.22.6.3.6.47,1.07.48.95.3.78.3.51.17.47.3.65.39.69.26.69L23,68l.26.43.22.56.43.77.34.86L24.81,72l.77,1.46.43,1,.31.64.17.39.17.56.52,1,.38.82.22.34.38.82.31.9.21.73-.17,1-.47.56-.86.43L25.67,83l-1-.21-.39-.35L23.86,82l-.12-.56-.39-.81-.47-1-.26-.47-.39-.86-.47-1L21.59,77l-.31-.52-.38-.68-.3-.56-.43-.3-.86-.09-1.08,0h-5l-1.42,0-1.12.09-.6,0L9.33,75l-.69,0-.56.3-.25.39L7,77.4l-.43.77-.13.48-.22.43-.26.6-.34.73-.21.65-.44.68-.51.78L4,82.9l-.69.18ZM17.8,70l0,0,.13,0,.18-.39L18,68.71l-.26-.64-1-1.68-.43-.81-.56-1.38-.34-.82-.3-.77-.47-1.12-.52-.43-.34.69-.35,1.07-.73,1.64-.56,1.16-.39,1.07-.34.78-.43.86,0,.34-.09.39v.43l.3.3.73,0h.78l1.2.09,2.88.08Z"/><path class="cls-1" d="M57.27,82.9l-.42-.25-.35-.3L56,81.83l-.52-.73-.34-.43-.35-.48-.34-.51-.39-.56-.26-.43-.34-.43L53,77.57l-.69-.77-.47-.6-.39-.56L50.91,75l-.64-.77-.52-.74-.69-.81L48.63,72l-.26-.34-.3-.21-.43-.3L47.21,71l-.47-.09-.56-.08-.39,0-2.66-.09-1,.09-.86.3-.22.69L40.94,73l-.09,1,0,.52-.05,1.11v.86l.05,1.21-.05.34v.82l0,.73v.9l-.09.61-.08.68-.22.43-.21.26-.26.13-.43.13h-.52l-.77.08-1-.08-.47-.09-.43-.17-.39-.69-.21-.6v-1l0-1,0-.43L35.73,77v-1l0-.86-.09-.69V71.47l0-.82,0-.52,0-.34v-2l0-.82V65.32l0-.91v-.6l.08-.43-.08-.51V62l0-.3,0-.26,0-.43v-.78l0-.17.08-.64V57.36l-.08-.43.08-.43-.13-.81v-.78l0-.86.17-.73.26-.39.25-.21.48-.26,1.24-.17,1.9.08,1.5,0,1,0h.69l.47,0,.73,0,1,0,2.19,0h.56l.82,0h2l1,0,2.32.21.52.13.77.26,1,.43,1.07.65.61.6.34.38.64.69.39.73.22.69.3.73.21.6.17.35.09.39.09.34-.05.52.05.55,0,1,0,1.33,0,.64-.09.35-.13.47-.17.47-.3.86-.43,1-.26.39-.25.43-.48.52-.43.38-.43.48-.73.47-.51.26-.74.51-.9.39-.26.26,0,.21,0,.18.26.43.47.77.6.73.43.52.22.38.34.39,1.29,1.85.47.6.52.69.43.52.34.55.48.61.3.77-.09.3-.17.56L60,81.7l-.6.39-.73.51-.94.39Zm-5.8-17,.39,0,.47,0,.34,0,.43,0,.39-.17.3-.13.39-.13.26-.21.3-.3.26-.35.34-.9.17-.9.09-.39,0-.64.09-.52-.09-.65-.21-.77-.22-.69-.51-.81L54,57.79l-.6-.17-.81-.26-.82,0-.65,0-.38-.05h-.39l-.47,0-.52.09H46.44l-.6-.05h-.69l-.77.05-.65-.13H42.4l-1,.13-.26.08-.13.3,0,.56,0,1.12v1.38l0,1,0,1.37,0,1.29.13.78.64.38.56.13.56,0,.78-.08.47.08.94,0h.91l.26,0,.94,0H48.2l1.81.17Z"/><path class="cls-1" d="M85.91,82.6l-.3,0-.39,0-1-.08-.86,0-.56,0-1.21,0h-.9l-.82,0H79.2l-.6.08-.69,0-.21,0-1-.08H75.46l-1.42,0-1.54,0H71.12l-.69,0-.69-.38-.51-.86-.09-1v-3l0-1.33,0-1V73.49l0-.82,0-.9,0-.43v-.61l0-.64v-1l0-.13,0-.39L69,68v-.39l0-1,0-1.81,0-1.2v-.73l0-1.25v-2.8l-.08-.73,0-.56V57l0-.82v-.47l0-.82,0-1.16.17-.56.3-.47.48-.3.34-.17.47-.09h1.25l1.81.09h2.83l1.21,0,.9,0,1.33,0H83l.94.13h.95l.69-.09,1.2,0,.69,0,1.72-.09.47,0,.65,0,.69.09.64.25L92,53l.25.86.09.9,0,.56-.26.78-.47.6-.48.17-1,.09-1.54,0-.91,0-.38,0-1.38.08h-2l-1.64,0-1,0H80.8l-.86.08-2.28,0h-.78l-.94,0h-.82l-.77.22-.13.68,0,.73-.08.31v.73l0,1,.09,1.07,0,1.12.21,1,.52.3h.34l1,.13,1.12-.09H78l.9.09,1-.09,3.26,0h2.37l.64,0,.74.22.51.51.17.48.09.43,0,.34.09,1-.13.9-.3.52-.86.43H84.15l-2.49.13-1.38,0h-.47l-1.77,0-.51,0-.78,0-1,0-.51.09-.56.17-.3.26,0,.6,0,.65-.09.73v.94l0,.65v.82l0,.68V76l.39,1.12,1.2.52h3l1.21,0,1.2,0,2.45,0,.91-.08h2.58l.51.08h.82l1.33,0,1.08.08h.56l.34.09.39.26.26.39.12.77,0,.9v.52l-.08.47-.18.52L92,82l-.31.17-.43.13-2.15.22L88,82.65H86.77Z"/><path class="cls-1" d="M123,83.12l-.56-.09-.73-.13-1.16-.17-1.29-.43-.86-.3-1.63-.69-1.17-.64-.51-.39-.73-.51-1.21-1.08-.94-.82-.52-.81-.39-.74v-.85l.39-.74.47-.6.74-.38.43-.13.43-.18h.55l.56.13.43.26,1,1,.17.3.17.17,1.25,1,.51.39.48.21.86.47.94.35.69.34.6.17.43.09h.35l.34,0,.39.08.25,0,.65,0,1,0,.65-.18h.64l.52-.08.56,0,.47-.13.34-.18.56-.17.73-.43.95-.77.6-.73.13-.35.26-.64.08-.82-.12-1.07-.74-1.16-.86-.52-.47-.22-.64-.21-.61-.17-.64-.09-.65-.17-.6-.09-.56-.13-.6,0-.9-.17-.9-.09-.48-.13-.9-.08-1.72-.3-.6-.13-.52-.17-.86-.22-.86-.3-.6-.26-.69-.26-.94-.47-.69-.43-.17-.08-.48-.39L113.6,66l-.3-.26-.26-.34-.34-.52-.21-.38-.43-.69-.43-1.68V60.85l.08-.74.13-1,.17-.65.17-.43.22-.43.17-.39.3-.47.48-.64,1.33-1.34.43-.21.6-.43.73-.35.56-.43.47-.25.39-.18.39,0,.43-.26,1.55-.43.81-.13,1-.13.47-.08.56,0,1-.09.86,0h.39l.3,0,1.5.12.26.09h.34l.43.09.39.08.52.09,1.12.43.43.26.38.17.56.34,1.08.48.6.55.94.74.82.86.73,1,.39.73L136,59.17l-.08.26-.17.3-.35.3-.77.47-.82.3-.69,0-.69-.3-.43-.3-.47-.48-.73-.77-.6-.52-.39-.3-.73-.38-.47-.39-1-.43-.69-.17-1.16-.13-.77,0-1.17,0-1,.08-.86,0-1.29.26-1.24.55-.52.31-.69.47-.86.77-.26.65-.17.51,0,.78.17.77.26.69.21.3.35.26.6.47.9.34,1.34.39.81.17.52.13.47,0,.56.08.39.09.47.21h.3l.43,0h.86l.52.13.73.12.86.22.43.13.43,0,.17.13,1.12.13,2,.52.94.43.91.38.73.56.25.26.61.43.64.73.26.52.26.47.17.3.08.34.26.69.09.6,0,.18.09.08,0,.6V74.6l-.17,1-.17.69-.22.6-.21.43-.09.3-.3.52-.39.56-.34.39-.3.38-.22.22-.3.39-.39.38-.51.35-.73.47-.43.26-.3.17-.43.22-.43.17-.3.13-.61.17-.86.3-1.11.26-1,.08-.64.09-.86,0h-1.68Z"/><path class="cls-1" d="M154.54,82.77h-.73l-.43-.08-.6-.34-.22-.26-.26-.26-.17-.82v-.9l0-.65v-.64l.09-.82,0-1.07,0-.82v-.9l0-.73,0-1.68v-3l-.09-1v-.35l.05-.47V66.82l-.05-1.16,0-.73V63.77l0-1.38v-.9l.05-.34-.09-.43,0-.69v-.56l0-.34v-.48l-.09-.73-.21-.51-.17-.13-.91-.05-1,.09-.34,0-.56,0h-.77l-2.76-.09-.9.05-.6-.13-.39-.3-.34-.39-.26-.6-.09-1,.13-1.17.39-.73.52-.34.51-.17.6-.05.69-.12h.52l.34,0h2.15l.22,0h2.49l.56,0h1l1,.05h1.16l1-.05.81,0,.86,0,1,0,1.11,0,4.13.09,1,.09.86.13.95.73.3,1V55l0,.38L167,56l-.13.34-.18.26-.3.34-.81.26-1.34.17-1.46,0-1.12.09-3.09-.09-.69.17-.26.39,0,.9v1l0,.82,0,.86,0,.73,0,.9,0,1v.43l0,.52,0,.47,0,.3,0,.56v1l-.09.43.09.34,0,.48,0,.47-.09.47,0,.65v.6l0,.69v.6l-.08.43.08.26-.08.64,0,1.16v.65l0,.38-.08.48,0,.38,0,.39v1.08l0,.68-.09.56v.39l.13.3.09.43,0,.47-.08.52-.18.52-.25.47-.3.13-.78.34-.47.17Z"/><path class="cls-1" d="M175.82,82.47l-.81-.21-.61-.6-.17-.6.05-1V78.35l0-1-.09-.68.05-1-.09-1.08,0-.56.05-.47-.13-.73V71.47l.08-1-.08-.86.13-.77-.05-.52v-.77l-.13-.77.05-.52v-.69l-.13-1.2L174,63.6l.13-1.29V61.06l.05-1.16L174.1,59V54.91l0-.86.17-.69.22-.38.26-.26.55-.39.82-.08h.78l.9,0,.69.21.34.39.34.56.05.77,0,1.08V56l0,.47.08.73,0,1.08v1l.09.73-.05,1.08,0,1.33v.86l0,.6V65l.05.94-.05,1.16.05,2-.09,1.21v.56l0,.38V73.7l.05.69v2.24l.08.47v2l0,1-.22,1.2-.21.48-.22.25-.3.13-.77.3h-.9l-.35,0Z"/><path class="cls-1" d="M190.06,82.39l-.56-.3-.3-.61-.22-.77,0-.9,0-1,0-.86.08-.64,0-1.12V72.33l-.08-.48-.05-.94V68.24l.05-1.2v-.82l.08-1,0-.94.09-1.12L189,62.09l.09-.9v-2l-.09-.6V57.36l0-1.07V53.92l.17-.69.13-.3.22-.3.3-.17.51-.13.56,0,.56.08h.82l.69,0,.47.17.26.26.21.39.09.3,0,.69.05.86v.64l.08,1v.69l-.08.86-.05.73v2.71l.05.94.08.82,0,.77,0,1.29,0,.95,0,.3,0,.47,0,.82,0,.82v.38l0,.39,0,.3-.09.86v.78l0,1.46-.13.94v1l.05.73.12,1V77l0,.39.26.34.21.09h1.89l.95,0,.39,0,.42,0,.69,0,.86,0h.91l.68-.13.82-.05h.78l.64.05h.86l.52.08h.77l1-.13h1l.65.05h.6l.56.13.47.3.48.56.08.3V81l-.08.43-.13.3-.35.3-.73.39-.6.09-.73,0h-2.24l-.73.13-.56,0h-2.45l-.64,0L199,82.6h-8.3Z"/><path class="cls-1" d="M218.87,82.39l-.56-.3-.3-.61-.22-.77,0-.9,0-1,0-.86.08-.64,0-1.12V72.33l-.09-.48,0-.94V68.24l0-1.2v-.82l.09-1,0-.94.09-1.12-.09-1.12.09-.9v-2l-.09-.6V57.36l0-1.07V53.92l.17-.69.13-.3.22-.3.3-.17.51-.13.56,0,.56.08h.82l.69,0,.47.17.26.26.21.39.09.3,0,.69,0,.86v.64l.09,1v.69l-.09.86,0,.73v2.71l0,.94.09.82,0,.77,0,1.29,0,.95,0,.3,0,.47,0,.82,0,.82v.38l0,.39,0,.3-.09.86v.78l0,1.46-.13.94v1l0,.73.13,1V77l0,.39.26.34.21.09h1.89l.95,0,.38,0,.43,0,.69,0,.86,0h.91l.68-.13.82-.05h.78l.64.05h.86l.52.08h.77l1-.13h1l.65.05h.6l.56.13.47.3.48.56.08.3V81l-.08.43-.13.3L239,82l-.73.39-.6.09-.73,0h-2.24l-.73.13-.56,0H231l-.64,0-2.54.08h-8.3Z"/><path class="cls-1" d="M271.8,83.38l-.78-.09-.81-.26-.91-.17-.43-.13-.68-.21L267,82.17l-.82-.34L264.62,81l-.86-.69-.61-.39-.47-.43-.82-.68-.73-.78-.51-.73-.69-.86-.65-1-.51-1.16-.34-1-.26-.51-.18-.56-.21-.86-.13-.69-.09-.47-.12-.73-.09-.82-.09-.39.05-.51-.09-.9.09-.69v-.35l0-.73.17-.69.09-.64.17-.6.09-.48.17-.55.21-.39.13-.39.09-.3.34-.64.39-.69.26-.39.43-.82.68-.81.61-.86,1-1,1-.82.43-.38.69-.43.86-.56.48-.26.51-.34.48-.26.47-.17.73-.22,1.07-.34,1-.35.9-.13.56-.13h1l.86,0,1,.13,1.07.09.3.08.65.09.86.21.64.13.43.13,1.08.39.64.34.47.22.39.26,1.29.6.82.64.69.48.47.43.3.25.52.65.64.82.3.6.13.64-.26.86-.43.65-.6.47-.9.47-.95,0-.6-.22-.64-.56-.86-.81-1-.82-1.08-.69-1-.56-.77-.3-.69-.21-2.41-.43-.81-.09-.22,0-.95.09-1.46.26-.94.21-.65.3-.94.48-.91.55-.51.43-.39.39-.34.3-1.21,1.38-.21.39-.3.43-.48,1-.34.86-.22.69-.3.94-.17,1.25v1.46l.13.73.09,1,.08.73.17.69.26.6.26.52.3.43.26.47.39.39.3.39.38.6.35.43.64.56,1.25,1,1.42.82,1.2.47,1.16.3.78.17,1,.09,1.67-.13.86-.13,1.12-.3.82-.26,1.46-.69.9-.6.65-.6.82-.9.38-.56.43-.65.43-.77.43-.86.18-.69.08-.56,0-.43-.56-.34h-1.76l-1.21,0-.43-.08h-1.59l-1.29,0-.52,0-.6,0-.38-.08H274l-.9-.09-.69-.26-.34-.51-.18-.69-.13-1.16v-.86l.18-.47.34-.52.43-.26.43-.13h1.76l1.64-.13h1.29l.56,0h.94l3.06,0h.81l1.72.09,1.51.13.43.13.47.26.65.68.43,1.34v1.8l-.18,1.55-.17.82-.13.38-.08.61-.39,1-.3.94-.26.43-.26.6-.38.69-.26.43-.35.56-.51.65-.43.43-.69.81-.9.86-.43.35-.48.34-.43.22-.25.21-.82.52-.35.13-.86.43-.86.3-.64.13-.6.21L277,83l-.38,0-.65.17h-.73l-.39.13-.81,0h-.82l-.52.09Z"/><path class="cls-1" d="M317.29,82.9l-.43-.25-.34-.3-.48-.52-.51-.73-.34-.43-.35-.48-.34-.51-.39-.56-.26-.43-.34-.43-.48-.69-.68-.77-.48-.6-.38-.56-.56-.69-.65-.77-.51-.74-.69-.81-.43-.61-.26-.34-.3-.21-.43-.3-.43-.22-.47-.09-.56-.08-.39,0-2.66-.09-1,.09-.86.3-.21.69L301,73l-.08,1-.05.52,0,1.11v.86l0,1.21,0,.34v.82l0,.73v.9l-.09.61-.09.68-.21.43-.21.26-.26.13-.43.13h-.52l-.77.08-1-.08-.47-.09-.43-.17-.39-.69-.21-.6v-1l0-1,0-.43.13-1.68v-1l0-.86-.09-.69V71.47l0-.82,0-.52,0-.34v-2l0-.82V65.32l0-.91v-.6l.09-.43-.09-.51V62l0-.3,0-.26,0-.43v-.78l0-.17.09-.64V57.36l-.09-.43.09-.43-.13-.81v-.78l0-.86.18-.73.25-.39.26-.21.47-.26,1.25-.17,1.89.08,1.51,0,1,0h.69l.47,0,.73,0,1,0,2.19,0h.56l.82,0h2l1,0,2.33.21.51.13.78.26,1,.43,1.07.65.6.6.35.38.64.69.39.73.21.69.3.73.22.6.17.35.09.39.08.34,0,.52,0,.55,0,1,0,1.33,0,.64-.09.35-.13.47-.17.47-.3.86-.43,1-.26.39-.26.43-.47.52-.43.38-.43.48-.73.47-.52.26-.73.51-.9.39-.26.26,0,.21.05.18.25.43.48.77.6.73.43.52.21.38.35.39,1.29,1.85.47.6.52.69.43.52.34.55.47.61.3.77-.08.3-.17.56-.52.86-.6.39-.73.51-.95.39Zm-5.8-17,.38,0,.48,0,.34,0,.43,0,.39-.17.3-.13.39-.13.25-.21.3-.3.26-.35.35-.9.17-.9.08-.39.05-.64.08-.52-.08-.65-.22-.77-.21-.69-.52-.81-.73-.48-.6-.17-.82-.26-.82,0-.64,0-.39-.05h-.38l-.48,0-.51.09h-2.88l-.61-.05h-.68l-.78.05-.64-.13h-1.34l-1,.13-.26.08-.13.3,0,.56,0,1.12v1.38l0,1,0,1.37,0,1.29.12.78.65.38.56.13.56,0,.77-.08.48.08.94,0h.9l.26,0,.95,0h1.16l1.8.17Z"/><path class="cls-1" d="M345.93,82.6l-.3,0-.39,0-1-.08-.86,0-.56,0-1.2,0h-.9l-.82,0h-.69l-.6.08-.69,0-.21,0-1-.08h-1.29l-1.42,0-1.55,0h-1.37l-.69,0-.69-.38-.51-.86-.09-1v-3l0-1.33,0-1V73.49l0-.82-.05-.9,0-.43v-.61l0-.64v-1l0-.13,0-.39,0-.51v-.39l0-1,0-1.81,0-1.2v-.73l0-1.25v-2.8l-.09-.73.05-.56V57l0-.82v-.47l0-.82.05-1.16.17-.56.3-.47.47-.3.35-.17.47-.09h1.25l1.8.09h2.84l1.2,0,.91,0,1.33,0H343l.94.13h.95l.69-.09,1.2,0,.69,0,1.72-.09.47,0,.64,0,.69.09.65.25L352,53l.26.86.09.9,0,.56-.26.78-.47.6-.47.17-1,.09-1.55,0-.9,0-.39,0-1.37.08h-2l-1.63,0-1,0h-.43l-.86.08-2.28,0h-.77l-.95,0h-.81l-.78.22-.13.68,0,.73-.09.31v.73l0,1,.09,1.07,0,1.12.22,1,.52.3h.34l.95.13,1.11-.09H338l.91.09.94-.09,3.27,0h2.37l.64,0,.73.22.52.51.17.48.09.43,0,.34.08,1-.12.9-.3.52-.87.43h-2.27l-2.5.13-1.37,0h-.48l-1.76,0-.52,0-.77,0-1,0-.52.09-.56.17-.3.26,0,.6,0,.65-.09.73v.94l0,.65v.82l0,.68V76l.39,1.12,1.2.52h3l1.2,0,1.21,0,2.45,0,.9-.08h2.58l.52.08h.82l1.33,0,1.07.08h.56l.35.09.38.26.26.39.13.77,0,.9v.52l-.09.47-.17.52L352,82l-.3.17-.43.13-2.15.22-1.12.13h-1.2Z"/><path class="cls-1" d="M359.69,83l-.56-.13-.77-.38-.61-.48-.43-.51-.17-.52v-.77l.39-.78.26-.64.21-.47.26-.52.39-.9.26-.69.81-1.64.43-.94.39-1,.69-1.33.43-1,.3-.6.3-.65.34-.73.61-1.55.51-.9.35-1,.6-1.29.69-1.59.38-.86.65-1.63.47-1,.22-.65.38-.73.3-.6.09-.34.17-.43.22-.6.3-.43.26-.52.25-.47.17-.35.31-.51.51-.43,1.08-.22h1.16l.56.13.47.43.3.56.26.52.43,1,.43.95.82,1.59.25.69.3.56.26.77.35.78.21.6.3.6.48,1.07.47.95.3.78.3.51.17.47.3.65.39.69.26.69.26.73.25.43.22.56.43.77.34.86L382,72l.78,1.46.43,1,.3.64.17.39.17.56.52,1,.39.82.21.34.39.82.3.9.21.73-.17,1-.47.56-.86.43-1.51.38-1-.21-.38-.35L381,82l-.13-.56-.39-.81-.47-1-.26-.47-.39-.86-.47-1-.17-.39-.3-.52-.39-.68-.3-.56-.43-.3-.86-.09-1.08,0h-5l-1.42,0-1.11.09-.61,0-.73.09-.68,0-.56.3-.26.39-.86,1.72-.43.77-.13.48-.22.43-.25.6-.35.73-.21.65-.43.68-.52.78-.47.38-.69.18ZM375,70l.05,0,.13,0,.17-.39-.13-.78-.26-.64L374,66.39l-.43-.81L373,64.2l-.35-.82-.3-.77-.47-1.12-.52-.43-.34.69-.35,1.07-.73,1.64-.56,1.16L369,66.69l-.35.78-.43.86,0,.34-.09.39v.43l.31.3.73,0h.77l1.2.09L374,70Z"/><path class="cls-1" d="M402,82.77h-.73l-.43-.08-.61-.34-.21-.26-.26-.26-.17-.82v-.9l0-.65v-.64l.09-.82,0-1.07,0-.82v-.9l0-.73,0-1.68v-3l-.09-1v-.35l.05-.47V66.82l-.05-1.16,0-.73V63.77l0-1.38v-.9l.05-.34-.09-.43,0-.69v-.56l0-.34v-.48l-.09-.73-.21-.51-.17-.13-.91-.05-1,.09-.34,0-.56,0h-.78l-2.75-.09-.9.05-.6-.13-.39-.3-.34-.39-.26-.6-.09-1,.13-1.17.39-.73.51-.34.52-.17.6-.05.69-.12h.52l.34,0H396l.22,0h2.49l.56,0h1l.94.05h1.16l1-.05.81,0,.86,0,1,0,1.11,0,4.13.09,1,.09.86.13.95.73.3,1V55l0,.38-.13.61-.12.34-.18.26-.3.34-.81.26-1.34.17-1.46,0-1.12.09L406,57.32l-.69.17-.26.39,0,.9v1l0,.82,0,.86-.05.73,0,.9,0,1v.43l0,.52,0,.47,0,.3,0,.56v1l-.08.43.08.34,0,.48,0,.47-.08.47,0,.65v.6l-.05.69v.6l-.08.43.08.26-.08.64,0,1.16v.65l0,.38-.08.48,0,.38,0,.39v1.08l0,.68-.09.56v.39l.13.3.09.43,0,.47-.08.52-.18.52-.25.47-.31.13-.77.34-.47.17Z"/></g></g></svg>