<svg id="Layer_1" data-name="Layer 1" xmlns="http://www.w3.org/2000/svg" viewBox="0 0 488 671"><defs><style>.cls-1{fill:#f8ffff;stroke:#8e8e8e;stroke-miterlimit:10;stroke-width:11px;}.cls-2{fill:#fff;}.cls-3{fill:#f1cb15;opacity:0.87;}</style></defs><title>Artboard 1</title><path class="cls-1" d="M20,20.59,89.07,629a31.61,31.61,0,0,0,31.43,28H370.94a31.61,31.61,0,0,0,31.45-28.13l66.76-608.3a6.84,6.84,0,0,0-6.8-7.57H26.79A6.83,6.83,0,0,0,20,20.59Z"/><rect class="cls-2" x="63.08" y="132" width="364.34" height="42.62" rx="6.94" ry="6.94"/><path class="cls-3" d="M427.25,161.5,378.14,609a26.75,26.75,0,0,1-26.61,23.8H139.64a26.74,26.74,0,0,1-26.6-23.7L83,344.68l-9-79.52L63.14,161.29c0-.3,347.33,0,363.55-.16C427,161.12,427.29,161.19,427.25,161.5Z"/></svg>