<svg id="Layer_1" data-name="Layer 1" xmlns="http://www.w3.org/2000/svg" viewBox="0 0 1366 768"><defs><style>.cls-1{fill:#f8ffff;stroke:#8e8e8e;stroke-miterlimit:10;stroke-width:11px;}.cls-2{fill:#fff;}.cls-3{fill:#f37a20;}</style></defs><title>Artboard 2</title><path class="cls-1" d="M439,71.59,508.07,680a31.61,31.61,0,0,0,31.43,28H789.94a31.61,31.61,0,0,0,31.45-28.13l66.76-608.3a6.84,6.84,0,0,0-6.8-7.57H445.79A6.83,6.83,0,0,0,439,71.59Z"/><rect class="cls-2" x="482.08" y="183" width="364.34" height="42.62" rx="6.94" ry="6.94"/><path class="cls-3" d="M846.25,212.5,797.14,660a26.75,26.75,0,0,1-26.61,23.8H558.64a26.74,26.74,0,0,1-26.6-23.7L502,395.68l-9-79.52L482.14,212.29c0-.3,347.33,0,363.55-.16C846,212.12,846.29,212.19,846.25,212.5Z"/></svg>