<svg id="Sun" xmlns="http://www.w3.org/2000/svg" viewBox="0 0 145.31 150.63"><defs><style>.cls-1{fill:#f9e857;}.cls-2{fill:none;stroke:#f9e857;stroke-linecap:round;stroke-miterlimit:10;}</style></defs><title>Sun</title><ellipse class="cls-1" cx="71.9" cy="73.99" rx="43.33" ry="40.76"/><path class="cls-2" d="M289.6,341.2v21.25" transform="translate(-215.61 -212.32)"/><path class="cls-2" d="M312.62,335.89c.66,5.58,8.56,12.15,11.51,16.82" transform="translate(-215.61 -212.32)"/><path class="cls-2" d="M333,314.64c6.22-.1,13.62-.59,17.71,4.43" transform="translate(-215.61 -212.32)"/><path class="cls-2" d="M336.52,278.34h23.91" transform="translate(-215.61 -212.32)"/><path class="cls-2" d="M328.55,252.67c1.74-6.32,11.91-12.37,16-17" transform="translate(-215.61 -212.32)"/><path class="cls-2" d="M305.53,236.73c0-8.25,2.43-17.21-.77-23.91" transform="translate(-215.61 -212.32)"/><path class="cls-2" d="M274.55,235c-.54-6.9-5.51-12-8.57-18" transform="translate(-215.61 -212.32)"/><path class="cls-2" d="M232.74,235.65c1.87,1.66,12.49,12.24,15.25,15.25" transform="translate(-215.61 -212.32)"/><path class="cls-2" d="M216.11,275.69c5.64-.44,13.52.81,17.71,3.54" transform="translate(-215.61 -212.32)"/><path class="cls-2" d="M217.79,321.41c5-2.59,12.74-7.15,17.8-9.42" transform="translate(-215.61 -212.32)"/><path class="cls-2" d="M247.1,347.4c.67-6.77,7.23-11.73,11.51-16.82" transform="translate(-215.61 -212.32)"/></svg>