<svg id="Balloon" xmlns="http://www.w3.org/2000/svg" viewBox="0 0 86.65 251.26"><defs><style>.cls-1{fill:none;stroke:#cccccb;stroke-linecap:round;stroke-miterlimit:10;}.cls-2{fill:#d12f3d;}</style></defs><title>Ballloon</title><path class="cls-1" d="M281.84,259.47c11.05,3.78,3,23-.58,28.87-6,9.88-8.25,25.66-2,36a164.7,164.7,0,0,1,8.16,16c3.61,8.1,5.73,17,4.89,25.85-1.26,13.22-5.6,26.4-7.5,39.63" transform="translate(-241.67 -155.01)"/><path class="cls-2" d="M328.33,208c0-29.27-19.4-53-43.33-53s-43.33,23.73-43.33,53c0,27.42,17,50,38.86,52.72-.95,2-2.23,5-1.94,6.6.13.75,2.76-1.82,4.08-2.61s2.51,1.85,3.3,2.51,1.71-2.27,2.5-2.65,2.9,2.84,4.35,2.74c1.18-.07-.46-3.87-2.06-6.79C312,257.08,328.33,234.89,328.33,208Z" transform="translate(-241.67 -155.01)"/></svg>